Coordinates
version=1
nRows=16
nColumns=33
inDegrees=yes

Units are S.I. units (second, meters, Newtons, ...)
Angles are in degrees.

endheader
time	ground_thorax_rot_x	ground_thorax_rot_y	ground_thorax_rot_z	ground_thorax_tx	ground_thorax_ty	ground_thorax_tz	clav_prot_r	clav_elev_r	scapula_abduction_r	scapula_elevation_r	scapula_upward_rot_r	scapula_winging_r	shoulder_elv_r	plane_of_elev_r	axial_rot_r	elbow_flexion_r	pro_sup_r	wrist_flex_r	wrist_dev_r	clav_prot_l	clav_elev_l	scapula_abduction_l	scapula_elevation_l	scapula_upward_rot_l	scapula_winging_l	shoulder_elv_l	plane_of_elev_l	axial_rot_l	elbow_flexion_l	pro_sup_l	wrist_flex_l	wrist_dev_l
      1.74000000	      1.50558802	     -0.50647676	     -6.82970765	     -0.07942002	      1.05438390	     -0.00280610	    -12.42333669	     -9.45993100	    -12.09374693	     -2.91788162	      5.49975753	      1.22377665	     53.53160561	    -45.29089927	     60.44715948	     58.87758459	     -1.52068857	     12.98680689	      8.96201073	     -5.55121456	     -6.92179112	      3.61918936	     -2.50770605	     -5.73308587	     -1.60284102	     57.84910997	    -51.53400144	    -44.65184632	     60.59211098	      2.33491771	      7.95525063	    -19.64376045
      1.75000000	      1.50235192	     -0.50602003	     -6.82817502	     -0.07931771	      1.05431558	     -0.00269404	    -12.42318339	     -9.46072098	    -12.09358457	     -2.91833867	      5.49916815	      1.22370337	     53.53073646	    -45.29037588	     60.44747172	     58.87748569	     -1.51999916	     12.98705592	      8.96190720	     -5.55111187	     -6.92385325	      3.61913428	     -2.50650590	     -5.73539388	     -1.60387240	     57.84567164	    -51.53247739	    -44.65317573	     60.59372974	      2.33567025	      7.95478652	    -19.64466288
      1.76000000	      1.48800448	     -0.51095838	     -6.82996445	     -0.07919913	      1.05438336	     -0.00276291	    -12.42311057	     -9.46894299	    -12.10037446	     -2.91990412	      5.48102002	      1.23084235	     53.50999557	    -45.29604158	     60.45737173	     58.87207922	     -1.51004628	     12.98995171	      8.96208507	     -5.54869626	     -6.94373070	      3.62337469	     -2.50033844	     -5.76982306	     -1.61600440	     57.79716823	    -51.52163956	    -44.67377393	     60.62017874	      2.34564723	      7.94984554	    -19.65777733
      1.77000000	      1.50276928	     -0.57176438	     -6.82365914	     -0.07897674	      1.05442604	     -0.00284091	    -12.51410581	     -9.40813259	    -12.26408827	     -2.87149913	      5.48885481	      1.22116365	     53.45201325	    -44.94071554	     60.61292468	     58.48176440	      0.30777519	     13.89784469	      8.55384045	     -5.56874969	     -6.85817423	      3.84589662	     -2.77062949	     -6.28334528	     -1.71251343	     57.85079936	    -51.08907589	    -44.40407544	     60.43083388	      4.25538396	      6.31883461	    -21.02550689
      1.78000000	      1.49969177	     -0.57096658	     -6.82553751	     -0.07899293	      1.05437237	     -0.00271232	    -12.51402415	     -9.40840626	    -12.26456464	     -2.87125271	      5.48737940	      1.21986257	     53.45138347	    -44.94198651	     60.61350125	     58.48140985	      0.30826683	     13.89759150	      8.55402240	     -5.56884114	     -6.86017490	      3.84620295	     -2.77044189	     -6.28671553	     -1.71261013	     57.84644104	    -51.08933010	    -44.40666251	     60.43242504	      4.25610455	      6.31947769	    -21.02577308
      1.79000000	      1.48683856	     -0.57383165	     -6.84860585	     -0.07879386	      1.05435561	     -0.00277779	    -12.51416898	     -9.40889185	    -12.27229785	     -2.86574581	      5.47009238	      1.22095542	     53.43873868	    -44.95833384	     60.62219694	     58.47798963	      0.31317355	     13.89647820	      8.55633685	     -5.56571477	     -6.87184390	      3.84918226	     -2.77109127	     -6.31786619	     -1.72097729	     57.80586265	    -51.09410675	    -44.43095730	     60.44928361	      4.26233798	      6.32453637	    -21.02956697
      1.80000000	      1.48597527	     -0.57323227	     -6.85251878	     -0.07887243	      1.05433981	     -0.00265696	    -12.51429324	     -9.40735749	    -12.27300511	     -2.86650055	      5.46835240	      1.22213153	     53.43832797	    -44.96038315	     60.62298870	     58.47630769	      0.31406357	     13.89629354	      8.55650439	     -5.56592803	     -6.87297172	      3.84995210	     -2.77235379	     -6.32240494	     -1.72144357	     57.80025768	    -51.09574459	    -44.43435885	     60.45186111	      4.26336217	      6.32511787	    -21.03028574
      1.81000000	      1.54045259	     -0.59422589	     -6.87010505	     -0.07871272	      1.05433275	     -0.00281696	    -12.51917670	     -9.41293542	    -12.27332917	     -2.87526284	      5.48669876	      1.22410034	     53.49511792	    -44.98824736	     60.61760103	     58.38892156	      0.36425706	     13.90189783	      8.55139738	     -5.54935775	     -6.87474559	      3.83939375	     -2.79126529	     -6.37677907	     -1.72841745	     57.70820143	    -51.09775055	    -44.50773653	     60.56164813	      4.31219884	      6.32404810	    -21.07065954
      1.82000000	      1.53561750	     -0.59216803	     -6.88916308	     -0.07862975	      1.05428153	     -0.00279516	    -12.51973864	     -9.40861965	    -12.27693538	     -2.86879380	      5.47937085	      1.22080292	     53.49394933	    -44.99939154	     60.62338865	     58.38549986	      0.36839992	     13.90385170	      8.55241708	     -5.55007380	     -6.87540255	      3.84249239	     -2.79548106	     -6.38625011	     -1.72809028	     57.69952737	    -51.10621925	    -44.51348627	     60.56163995	      4.31638274	      6.32356683	    -21.07253644
      1.83000000	      1.53359278	     -0.59155748	     -6.89532594	     -0.07875162	      1.05432625	     -0.00273119	    -12.51938684	     -9.40689987	    -12.27859202	     -2.86683851	      5.47852916	      1.22049583	     53.49456036	    -45.00240815	     60.62443546	     58.38414847	      0.36913801	     13.90416045	      8.55257538	     -5.54981521	     -6.87450606	      3.84418693	     -2.79644366	     -6.38926505	     -1.72774672	     57.69712137	    -51.10915996	    -44.51496592	     60.56160420	      4.31715841	      6.32350121	    -21.07298486
      1.84000000	      1.52496170	     -0.59444048	     -6.94687630	     -0.07843757	      1.05418376	     -0.00278260	    -12.52232868	     -9.39165903	    -12.29006435	     -2.85103828	      5.46961330	      1.21817078	     53.50120461	    -45.03042906	     60.63448441	     58.37045153	      0.37821440	     13.91085405	      8.55377727	     -5.54926626	     -6.86601897	      3.85226682	     -2.81256809	     -6.41228335	     -1.73332453	     57.67791592	    -51.13672995	    -44.52866453	     60.56407931	      4.32633586	      6.31975440	    -21.08098526
      1.85000000	      1.52324437	     -0.59927782	     -6.97421959	     -0.07829513	      1.05413848	     -0.00279162	    -12.52597336	     -9.38163121	    -12.29669281	     -2.84247420	      5.47309703	      1.21397387	     53.51550376	    -45.04616646	     60.63786231	     58.36039833	      0.38741551	     13.92159869	      8.55339039	     -5.54943691	     -6.85607756	      3.85760780	     -2.82564518	     -6.42328841	     -1.73156346	     57.67085340	    -51.15718470	    -44.53546700	     60.57148044	      4.33519209	      6.31190678	    -21.09251026
      1.86000000	      1.52285038	     -0.59954459	     -6.97789382	     -0.07837708	      1.05424095	     -0.00276839	    -12.52638203	     -9.38021216	    -12.29745731	     -2.84147666	      5.47354821	      1.21330733	     53.51706423	    -45.04777751	     60.63817419	     58.35975374	      0.38816591	     13.92265666	      8.55338480	     -5.54958063	     -6.85472668	      3.85838288	     -2.82734839	     -6.42429521	     -1.73115850	     57.67039740	    -51.15958328	    -44.53602379	     60.57224439	      4.33589590	      6.31115371	    -21.09361308
      1.87000000	      1.54962377	     -0.69851894	     -6.74500259	     -0.07816969	      1.05421177	     -0.00290066	    -12.50791243	     -9.42129076	    -12.17735481	     -2.93443127	      5.64257940	      1.18919498	     53.94455982	    -45.33194326	     61.30093264	     58.20183923	      1.69994303	     15.80759883	      8.63536956	     -5.49728609	     -6.94528436	      3.76097648	     -2.75713242	     -6.45381216	     -1.74114866	     57.75906962	    -51.76498373	    -44.79408771	     60.60737283	      5.50570414	      4.73120337	    -22.62479926
      1.88000000	      1.54872389	     -0.69868592	     -6.74873361	     -0.07814635	      1.05440133	     -0.00290545	    -12.50822818	     -9.41906369	    -12.17816869	     -2.93412690	      5.64319633	      1.18929562	     53.94558179	    -45.33256209	     61.30011845	     58.20278670	      1.70024487	     15.80785344	      8.63507463	     -5.49755276	     -6.94362622	      3.76141554	     -2.75754956	     -6.45401840	     -1.74057329	     57.75963708	    -51.76619945	    -44.79389365	     60.60741712	      5.50607231	      4.73080232	    -22.62503908
      1.89000000	      1.54637979	     -0.69888688	     -6.75479254	     -0.07803302	      1.05457658	     -0.00292808	    -12.50891511	     -9.41649963	    -12.17858067	     -2.93271211	      5.64627416	      1.18905514	     53.94834517	    -45.33214598	     61.29830252	     58.20630567	      1.70090461	     15.80906801	      8.63459000	     -5.49764709	     -6.94211987	      3.76155502	     -2.76092923	     -6.45268030	     -1.73999333	     57.76163066	    -51.76858870	    -44.79353884	     60.60875361	      5.50661864	      4.72970516	    -22.62607023
